<svg width="17" height="20" viewBox="0 0 17 20" fill="none" xmlns="http://www.w3.org/2000/svg">
<path d="M5.69141 5.29167C5.69141 3.86242 6.85 2.70378 8.2793 2.70378C9.70859 2.70378 10.8672 3.86242 10.8672 5.29167H5.69141ZM3.96615 5.29167H1.37826C0.901842 5.29167 0.515625 5.67788 0.515625 6.1543V18.2311C0.515625 18.7076 0.901842 19.0938 1.37826 19.0938H15.1803C15.6568 19.0938 16.043 18.7076 16.043 18.2311V6.1543C16.043 5.67788 15.6568 5.29167 15.1803 5.29167H12.5924C12.5924 2.90958 10.6614 0.978516 8.2793 0.978516C5.89721 0.978516 3.96615 2.90958 3.96615 5.29167ZM5.69141 8.74219C5.69141 10.1715 6.85 11.3301 8.2793 11.3301C9.70859 11.3301 10.8672 10.1715 10.8672 8.74219H12.5924C12.5924 11.1243 10.6614 13.0553 8.2793 13.0553C5.89721 13.0553 3.96615 11.1243 3.96615 8.74219H5.69141Z" fill="#13A464"/>
</svg>
