<svg width="16" height="19" viewBox="0 0 16 19" fill="none" xmlns="http://www.w3.org/2000/svg">
<path d="M5.54304 5.15598H10.7189C10.7189 3.72671 9.56028 2.56806 8.13096 2.56806C6.70165 2.56806 5.54304 3.72671 5.54304 5.15598ZM3.81775 5.15598C3.81775 2.77387 5.74885 0.842773 8.13096 0.842773C10.5131 0.842773 12.4442 2.77387 12.4442 5.15598H15.0321C15.5085 5.15598 15.8947 5.5422 15.8947 6.01862V18.0956C15.8947 18.572 15.5085 18.9583 15.0321 18.9583H1.22983C0.753409 18.9583 0.367188 18.572 0.367188 18.0956V6.01862C0.367188 5.5422 0.753409 5.15598 1.22983 5.15598H3.81775ZM2.09247 6.88127V17.233H14.1695V6.88127H2.09247ZM5.54304 8.60655C5.54304 10.0359 6.70165 11.1945 8.13096 11.1945C9.56028 11.1945 10.7189 10.0359 10.7189 8.60655H12.4442C12.4442 10.9886 10.5131 12.9198 8.13096 12.9198C5.74885 12.9198 3.81775 10.9886 3.81775 8.60655H5.54304Z" fill="#434343"/>
</svg>
