<svg width="49" height="19" viewBox="0 0 49 19" fill="none" xmlns="http://www.w3.org/2000/svg">
<path fill-rule="evenodd" clip-rule="evenodd" d="M48.0586 2.7829H48.0584C47.0473 2.7829 46.2275 1.96318 46.2275 0.951999C46.2275 0.800217 46.246 0.652748 46.2808 0.511719H2.29676C2.33173 0.653044 2.35029 0.800843 2.35029 0.952975C2.35029 1.96411 1.53064 2.7838 0.519531 2.78388V3.47168C1.53064 3.47176 2.35029 4.29145 2.35029 5.30258C2.35029 6.31372 1.53064 7.13341 0.519531 7.13349V7.82129C1.53064 7.82137 2.35029 8.64106 2.35029 9.65219C2.35029 10.6633 1.53064 11.483 0.519531 11.4831V12.1709C1.53064 12.171 2.35029 12.9907 2.35029 14.0018C2.35029 15.0129 1.53064 15.8326 0.519531 15.8327V16.52C1.53064 16.5201 2.35029 17.3398 2.35029 18.3509C2.35029 18.5025 2.33188 18.6497 2.29717 18.7905H46.2809C46.246 18.6494 46.2275 18.5018 46.2275 18.3499C46.2275 17.3388 47.0473 16.519 48.0584 16.519C48.0585 16.519 48.0585 16.519 48.0586 16.519V15.8317H48.0584C47.0473 15.8317 46.2275 15.012 46.2275 14.0008C46.2275 12.9896 47.0473 12.1699 48.0584 12.1699H48.0586V11.4821H48.0584C47.0473 11.4821 46.2275 10.6624 46.2275 9.65122C46.2275 8.64004 47.0473 7.82031 48.0584 7.82031H48.0586V7.13251H48.0584C47.0473 7.13251 46.2275 6.31279 46.2275 5.30161C46.2275 4.29043 47.0473 3.4707 48.0584 3.4707H48.0586V2.7829Z" fill="url(#paint0_linear_1124_1902)"/>
<defs>
<linearGradient id="paint0_linear_1124_1902" x1="0.519531" y1="9.65112" x2="48.0586" y2="9.65112" gradientUnits="userSpaceOnUse">
<stop stop-color="#0F8269"/>
<stop offset="1" stop-color="#74B46C"/>
</linearGradient>
</defs>
</svg>
