<svg width="20" height="18" viewBox="0 0 20 18" fill="none" xmlns="http://www.w3.org/2000/svg">
<path d="M16.1622 17.557H4.21746C3.74626 17.557 3.36427 17.175 3.36427 16.7038V9.02507H0.804688L9.61588 1.01485C9.94129 0.719007 10.4384 0.719007 10.7638 1.01485L19.575 9.02507H17.0154V16.7038C17.0154 17.175 16.6334 17.557 16.1622 17.557ZM5.07066 15.8506H15.309V7.45301L10.1898 2.79922L5.07066 7.45301V15.8506ZM10.1898 12.4378C9.01182 12.4378 8.05684 11.4829 8.05684 10.3049C8.05684 9.12685 9.01182 8.17186 10.1898 8.17186C11.3678 8.17186 12.3228 9.12685 12.3228 10.3049C12.3228 11.4829 11.3678 12.4378 10.1898 12.4378Z" fill="#479B76"/>
</svg>
