<svg width="17" height="20" viewBox="0 0 17 20" fill="none" xmlns="http://www.w3.org/2000/svg">
<path d="M8.69595 14.705C12.0474 14.705 14.9781 16.1463 16.5723 18.2964L14.8867 19.0938C13.5893 17.5561 11.3016 16.5351 8.69595 16.5351C6.09028 16.5351 3.80258 17.5561 2.50522 19.0938L0.820312 18.2956C2.4146 16.146 5.34492 14.705 8.69595 14.705ZM8.69595 0.978516C11.2229 0.978516 13.2714 3.02703 13.2714 5.55399V8.29928C13.2714 10.8262 11.2229 12.8748 8.69595 12.8748C6.16897 12.8748 4.12047 10.8262 4.12047 8.29928V5.55399C4.12047 3.02703 6.16897 0.978516 8.69595 0.978516Z" fill="#13A464"/>
</svg>
