<svg width="16" height="18" viewBox="0 0 16 18" fill="none" xmlns="http://www.w3.org/2000/svg">
<path d="M8.1023 13.6571C11.231 13.6571 13.967 15.0027 15.4552 17.0099L13.8816 17.7543C12.6705 16.3188 10.5348 15.3657 8.1023 15.3657C5.66978 15.3657 3.5341 16.3188 2.32295 17.7543L0.75 17.0091C2.23835 15.0023 4.97395 13.6571 8.1023 13.6571ZM8.1023 0.842773C10.4613 0.842773 12.3737 2.75516 12.3737 5.11421V7.67707C12.3737 9.97408 10.5607 11.8475 8.28759 11.9446L8.1023 11.9485C5.74324 11.9485 3.83086 10.0361 3.83086 7.67707V5.11421C3.83086 2.81725 5.64392 0.943733 7.917 0.84672L8.1023 0.842773ZM8.1023 2.55135C6.7374 2.55135 5.62173 3.61829 5.54378 4.96363L5.53944 5.11421V7.67707C5.53944 9.09254 6.68683 10.2399 8.1023 10.2399C9.46719 10.2399 10.5829 9.17302 10.6608 7.82769L10.6652 7.67707V5.11421C10.6652 3.69879 9.51768 2.55135 8.1023 2.55135Z" fill="#434343"/>
</svg>
