<svg width="126" height="150" viewBox="0 0 126 150" fill="none" xmlns="http://www.w3.org/2000/svg">
<path d="M64.9614 96.9017C65.1209 96.9892 65.2659 97.0766 65.4254 97.1496C67.4988 98.185 70.0071 97.7621 71.602 96.0704L71.6165 96.0558C73.8784 93.6496 74.8643 90.281 75.1543 86.9852C75.6618 81.1375 74.1539 75.1293 70.9496 70.2294C69.4852 67.9982 67.6003 65.9274 65.1644 64.8775C62.7141 63.8275 59.6403 63.9587 57.6539 65.7524C55.856 67.3711 55.2905 69.9377 55.0876 72.3439C54.4931 79.7521 56.6969 87.3498 61.1627 93.2559C62.2211 94.6559 63.439 95.9975 64.9614 96.9017Z" fill="#DAEDEE"/>
<path d="M38.849 91.9436C40.3279 93.1685 41.9373 94.306 43.7642 94.8893C43.9527 94.9477 44.1266 94.9914 44.3151 95.0352C46.751 95.6476 49.3173 94.5685 50.5932 92.3956C50.5932 92.3956 50.6077 92.3811 50.6077 92.3665C52.4346 89.2603 52.6666 85.4396 52.1736 81.8813C51.3037 75.5523 48.2589 69.5587 43.6772 65.1401C41.5893 63.1276 39.0955 61.3922 36.2536 60.8673C33.3973 60.3423 30.1785 61.2318 28.4966 63.6234C26.9887 65.7671 26.9887 68.64 27.3657 71.2357C28.5111 79.2418 32.6869 86.7666 38.849 91.9436Z" fill="#DAEDEE"/>
<path d="M35.0926 102.166C35.0926 101.977 35.0926 101.787 35.0926 101.598C35.0056 99.6728 34.3532 97.8062 33.5412 96.0562C30.1629 88.721 24.0153 82.7128 16.6353 79.5337C14.2284 78.4983 11.4736 77.7546 9.02325 78.6587C6.31192 79.6649 4.60103 82.5815 4.36904 85.4835C4.13706 88.3856 5.152 91.2584 6.54391 93.8104C9.58872 99.4103 14.5619 103.916 20.4195 106.396C23.7253 107.795 27.4516 108.554 30.9024 107.606C30.9169 107.606 30.9314 107.591 30.9314 107.591C33.3527 106.891 35.0491 104.689 35.0926 102.166Z" fill="#DAEDEE"/>
<path d="M74.8915 104.718C67.6275 100.781 56.5937 98.6373 48.4597 99.8476C44.1099 100.489 40.3837 103.377 38.6293 107.431C35.3525 115.029 34.555 126.301 36.4544 134.366C37.5128 138.872 39.3977 143.363 42.863 146.382C46.3428 149.415 51.6785 150.596 55.6512 148.249C60.8709 145.157 61.4509 137.851 66.6126 133.87C71.7742 129.889 78.9368 131.23 83.2575 126.957C86.5343 123.72 86.7953 118.222 84.7799 114.066C82.7645 109.91 78.9368 106.92 74.8915 104.718Z" fill="#DAEDEE"/>
<path d="M29.0022 118.047C24.493 112.17 17.7654 108.058 10.5014 106.716C8.13803 106.279 5.52819 106.177 3.49832 107.504C1.26546 108.962 0.337514 111.923 0.714491 114.577C1.09147 117.216 2.59937 119.593 4.35376 121.591C8.22502 125.98 13.6042 128.999 19.3458 130.02C22.5936 130.603 26.0879 130.516 28.9732 128.955C28.9877 128.941 29.0022 128.941 29.0022 128.941C31.0321 127.833 32.0906 125.499 31.6266 123.224C31.5976 123.064 31.5541 122.889 31.4961 122.714C31.0466 120.993 30.0752 119.462 29.0022 118.047Z" fill="#DAEDEE"/>
<path d="M127.146 1.4126C124.406 2.37508 122.217 4.47503 120.462 6.79372C116.605 11.8686 114.518 18.2705 114.633 24.6579C114.706 28.2599 115.518 31.9931 117.78 34.7784C117.794 34.793 117.794 34.793 117.809 34.8076C119.404 36.7617 122.101 37.418 124.42 36.4409C124.594 36.368 124.768 36.2805 124.942 36.2076C126.668 35.3472 128.089 33.991 129.35 32.5327C134.642 26.4661 137.615 18.3726 137.528 10.2936C137.499 7.6687 137.049 4.8396 135.237 2.94382C133.207 0.829285 129.872 0.450128 127.146 1.4126Z" fill="#DAEDEE"/>
<path d="M121.362 90.7478C125.639 92.454 130.728 90.4561 133.701 86.9271C136.659 83.398 137.833 78.6585 138.196 74.0503C138.833 65.7818 136.325 54.7716 131.917 47.7718C129.569 44.024 125.436 41.7636 121.029 41.7928C112.793 41.8657 102.223 45.6864 95.6696 50.703C92.0014 53.5029 88.6811 57.0466 87.3326 61.4652C85.9842 65.8838 87.0717 71.2795 90.8124 73.9774C95.7276 77.5356 102.615 75.1003 108.313 78.2356C114.04 81.371 115.722 88.5166 121.362 90.7478Z" fill="#DAEDEE"/>
<path d="M97.5992 41.6469C97.6137 41.6469 97.6137 41.6615 97.6282 41.6761C99.4551 43.0906 102.007 43.1344 103.892 41.7782C104.037 41.6761 104.167 41.574 104.298 41.4573C105.661 40.3344 106.661 38.8178 107.502 37.2574C111.011 30.7243 112.04 22.8786 110.315 15.66C109.749 13.2976 108.793 10.8622 106.777 9.5352C104.544 8.0769 101.485 8.41231 99.2231 9.84144C96.9758 11.256 95.4244 13.6038 94.3225 16.0246C91.9011 21.362 91.3356 27.5306 92.742 33.2179C93.5105 36.4408 94.9894 39.6199 97.5992 41.6469Z" fill="#DAEDEE"/>
</svg>
